<svg width="7" height="12" viewBox="0 0 7 12" fill="none" xmlns="http://www.w3.org/2000/svg">
<path d="M3.875 5.28125C4.33333 5.40625 4.70833 5.53125 5 5.65625C5.3125 5.78125 5.63542 5.95833 5.96875 6.1875C6.30208 6.39583 6.55208 6.66667 6.71875 7C6.90625 7.33333 7 7.72917 7 8.1875C7 8.83333 6.78125 9.36458 6.34375 9.78125C5.92708 10.1771 5.36458 10.4375 4.65625 10.5625V12H2.65625V10.5625C1.96875 10.4167 1.39583 10.125 0.9375 9.6875C0.5 9.25 0.260417 8.6875 0.21875 8H1.6875C1.77083 8.9375 2.42708 9.40625 3.65625 9.40625C4.30208 9.40625 4.76042 9.29167 5.03125 9.0625C5.32292 8.8125 5.46875 8.53125 5.46875 8.21875C5.46875 7.46875 4.80208 6.92708 3.46875 6.59375C1.38542 6.11458 0.34375 5.19792 0.34375 3.84375C0.34375 3.23958 0.5625 2.72917 1 2.3125C1.4375 1.875 1.98958 1.58333 2.65625 1.4375V0H4.65625V1.46875C5.34375 1.63542 5.86458 1.94792 6.21875 2.40625C6.59375 2.86458 6.79167 3.39583 6.8125 4H5.34375C5.30208 3.0625 4.73958 2.59375 3.65625 2.59375C3.11458 2.59375 2.67708 2.70833 2.34375 2.9375C2.03125 3.16667 1.875 3.46875 1.875 3.84375C1.875 4.44792 2.54167 4.92708 3.875 5.28125Z" fill="black"/>
</svg>
