<svg width="15" height="13" viewBox="0 0 15 13" fill="none" xmlns="http://www.w3.org/2000/svg">
<path d="M13.5117 3.51172V2L7.5 5.76172L1.48828 2V3.51172L7.5 7.23828L13.5117 3.51172ZM13.5117 0.488281C13.9102 0.488281 14.25 0.640625 14.5312 0.945312C14.8359 1.25 14.9883 1.60156 14.9883 2V11C14.9883 11.3984 14.8359 11.75 14.5312 12.0547C14.25 12.3594 13.9102 12.5117 13.5117 12.5117H1.48828C1.08984 12.5117 0.738281 12.3594 0.433594 12.0547C0.152344 11.75 0.0117188 11.3984 0.0117188 11V2C0.0117188 1.60156 0.152344 1.25 0.433594 0.945312C0.738281 0.640625 1.08984 0.488281 1.48828 0.488281H13.5117Z" fill="black"/>
</svg>
