<svg width="84" height="84" viewBox="0 0 84 84" fill="none" xmlns="http://www.w3.org/2000/svg">
<path d="M36.1668 49.3463L27.1043 40.2838C26.3404 39.5199 25.4029 39.138 24.2918 39.138C23.1807 39.138 22.2085 39.5547 21.3751 40.388C20.6113 41.1519 20.2293 42.1241 20.2293 43.3047C20.2293 44.4852 20.6113 45.4574 21.3751 46.2213L33.2501 58.0963C34.014 58.8602 34.9862 59.2421 36.1668 59.2421C37.3474 59.2421 38.3196 58.8602 39.0835 58.0963L62.7293 34.4505C63.4932 33.6866 63.8751 32.7491 63.8751 31.638C63.8751 30.5269 63.4584 29.5547 62.6251 28.7213C61.8612 27.9574 60.889 27.5755 59.7084 27.5755C58.5279 27.5755 57.5557 27.9574 56.7918 28.7213L36.1668 49.3463ZM42.0001 83.513C36.2362 83.513 30.8196 82.4185 25.7501 80.2296C20.6807 78.0435 16.271 75.0755 12.521 71.3255C8.77099 67.5755 5.80294 63.1657 3.61683 58.0963C1.42794 53.0269 0.333496 47.6102 0.333496 41.8463C0.333496 36.0824 1.42794 30.6658 3.61683 25.5963C5.80294 20.5269 8.77099 16.1172 12.521 12.3672C16.271 8.61718 20.6807 5.64774 25.7501 3.45885C30.8196 1.27274 36.2362 0.179688 42.0001 0.179688C47.764 0.179688 53.1807 1.27274 58.2501 3.45885C63.3196 5.64774 67.7293 8.61718 71.4793 12.3672C75.2293 16.1172 78.1973 20.5269 80.3834 25.5963C82.5723 30.6658 83.6668 36.0824 83.6668 41.8463C83.6668 47.6102 82.5723 53.0269 80.3834 58.0963C78.1973 63.1657 75.2293 67.5755 71.4793 71.3255C67.7293 75.0755 63.3196 78.0435 58.2501 80.2296C53.1807 82.4185 47.764 83.513 42.0001 83.513Z" fill="#03DB80"/>
</svg>
