<svg width="14" height="14" viewBox="0 0 14 14" fill="none" xmlns="http://www.w3.org/2000/svg">
<path d="M11.6562 3.65625V2.34375H5V3.65625H11.6562ZM9 9V7.65625H5V9H9ZM11.6562 6.34375V5H5V6.34375H11.6562ZM12.3438 0.34375C12.6979 0.34375 13 0.479167 13.25 0.75C13.5208 1 13.6562 1.30208 13.6562 1.65625V9.65625C13.6562 10.0104 13.5208 10.3229 13.25 10.5938C13 10.8646 12.6979 11 12.3438 11H4.34375C3.98958 11 3.67708 10.8646 3.40625 10.5938C3.13542 10.3229 3 10.0104 3 9.65625V1.65625C3 1.30208 3.13542 1 3.40625 0.75C3.67708 0.479167 3.98958 0.34375 4.34375 0.34375H12.3438ZM1.65625 3V12.3438H11V13.6562H1.65625C1.30208 13.6562 0.989583 13.5312 0.71875 13.2812C0.46875 13.0104 0.34375 12.6979 0.34375 12.3438V3H1.65625Z" fill="black"/>
</svg>
