<svg width="16" height="11" viewBox="0 0 16 11" fill="none" xmlns="http://www.w3.org/2000/svg">
<path d="M5.75 6.23828C6.26562 6.23828 6.86328 6.30859 7.54297 6.44922C6.34766 7.10547 5.75 7.97266 5.75 9.05078V10.7383H0.511719V8.875C0.511719 8.33594 0.828125 7.85547 1.46094 7.43359C2.11719 7.01172 2.83203 6.70703 3.60547 6.51953C4.37891 6.33203 5.09375 6.23828 5.75 6.23828ZM8.66797 7.57422C9.60547 7.19922 10.5078 7.01172 11.375 7.01172C12.2422 7.01172 13.1445 7.19922 14.082 7.57422C15.0195 7.94922 15.4883 8.44141 15.4883 9.05078V10.7383H7.26172V9.05078C7.26172 8.44141 7.73047 7.94922 8.66797 7.57422ZM7.33203 4.09375C6.88672 4.53906 6.35938 4.76172 5.75 4.76172C5.14062 4.76172 4.61328 4.53906 4.16797 4.09375C3.72266 3.64844 3.5 3.12109 3.5 2.51172C3.5 1.90234 3.72266 1.375 4.16797 0.929688C4.61328 0.484375 5.14062 0.261719 5.75 0.261719C6.35938 0.261719 6.88672 0.484375 7.33203 0.929688C7.77734 1.375 8 1.90234 8 2.51172C8 3.12109 7.77734 3.64844 7.33203 4.09375ZM12.6758 4.97266C12.3242 5.32422 11.8906 5.5 11.375 5.5C10.8594 5.5 10.4141 5.32422 10.0391 4.97266C9.6875 4.59766 9.51172 4.15234 9.51172 3.63672C9.51172 3.12109 9.6875 2.67578 10.0391 2.30078C10.4141 1.92578 10.8594 1.73828 11.375 1.73828C11.8906 1.73828 12.3242 1.92578 12.6758 2.30078C13.0508 2.67578 13.2383 3.12109 13.2383 3.63672C13.2383 4.15234 13.0508 4.59766 12.6758 4.97266Z" fill="black"/>
</svg>
