<svg width="18" height="15" viewBox="0 0 18 15" fill="none" xmlns="http://www.w3.org/2000/svg">
<path d="M8.89453 4.59668H9C9.60938 4.59668 10.1367 4.81934 10.582 5.26465C11.0273 5.70996 11.25 6.2373 11.25 6.84668V6.9873L8.89453 4.59668ZM5.66016 5.19434C5.37891 5.75684 5.23828 6.30762 5.23828 6.84668C5.23828 7.87793 5.60156 8.76855 6.32812 9.51855C7.07812 10.2451 7.96875 10.6084 9 10.6084C9.53906 10.6084 10.0898 10.4678 10.6523 10.1865L9.49219 9.02637C9.30469 9.07324 9.14062 9.09668 9 9.09668C8.39062 9.09668 7.86328 8.87402 7.41797 8.42871C6.97266 7.9834 6.75 7.45605 6.75 6.84668C6.75 6.70605 6.77344 6.54199 6.82031 6.35449L5.66016 5.19434ZM1.51172 1.0459L2.46094 0.0966797L15.75 13.3857L14.8008 14.335C14.6836 14.2178 14.3086 13.8545 13.6758 13.2451C13.0664 12.6357 12.5977 12.167 12.2695 11.8389C11.2617 12.2607 10.1719 12.4717 9 12.4717C7.14844 12.4717 5.47266 11.9561 3.97266 10.9248C2.47266 9.89355 1.39453 8.53418 0.738281 6.84668C0.996094 6.2373 1.39453 5.56934 1.93359 4.84277C2.49609 4.09277 3.03516 3.51855 3.55078 3.12012C3.26953 2.83887 2.87109 2.44043 2.35547 1.9248C1.86328 1.40918 1.58203 1.11621 1.51172 1.0459ZM9 3.08496C8.53125 3.08496 8.07422 3.17871 7.62891 3.36621L6.01172 1.74902C6.92578 1.39746 7.92188 1.22168 9 1.22168C10.8516 1.22168 12.5156 1.7373 13.9922 2.76855C15.4922 3.7998 16.5703 5.15918 17.2266 6.84668C16.6641 8.22949 15.8086 9.41309 14.6602 10.3975L12.4805 8.21777C12.668 7.77246 12.7617 7.31543 12.7617 6.84668C12.7617 5.81543 12.3867 4.93652 11.6367 4.20996C10.9102 3.45996 10.0312 3.08496 9 3.08496Z" fill="#5D5D5B"/>
</svg>
