<svg width="17" height="13" viewBox="0 0 17 13" fill="none" xmlns="http://www.w3.org/2000/svg">
<path d="M14.0535 1.03731C13.0042 0.546357 11.8941 0.197512 10.7526 0C10.6104 0.257062 10.4443 0.602812 10.3297 0.877875C9.09899 0.692812 7.87956 0.692812 6.67143 0.877875C6.55693 0.602875 6.38706 0.257062 6.24356 0C5.10093 0.197603 3.98991 0.547337 2.94012 1.03987C0.851121 4.19669 0.284808 7.275 0.567933 10.3097C1.9535 11.3444 3.29624 11.973 4.61637 12.3843C4.94445 11.9331 5.23447 11.4555 5.48343 10.9562C5.00945 10.7758 4.55251 10.5534 4.11806 10.2917C4.23239 10.207 4.34403 10.1187 4.45281 10.0269C7.08543 11.2583 9.94593 11.2583 12.5472 10.0269C12.6564 10.1181 12.768 10.2064 12.8819 10.2917C12.4467 10.5541 11.9889 10.7769 11.514 10.9576C11.7644 11.4588 12.0539 11.9369 12.3811 12.3856C13.7024 11.9743 15.0464 11.3457 16.432 10.3097C16.7642 6.79175 15.8645 3.74169 14.0535 1.03731ZM5.84212 8.44343C5.05181 8.44343 4.40368 7.70562 4.40368 6.80719C4.40368 5.90875 5.03799 5.16969 5.84212 5.16969C6.64631 5.16969 7.29437 5.90744 7.28056 6.80719C7.28181 7.70562 6.64631 8.44343 5.84212 8.44343ZM11.1578 8.44343C10.3675 8.44343 9.71943 7.70562 9.71943 6.80719C9.71943 5.90875 10.3537 5.16969 11.1578 5.16969C11.962 5.16969 12.6101 5.90744 12.5962 6.80719C12.5962 7.70562 11.962 8.44343 11.1578 8.44343Z" fill="#5865F2"/>
</svg>
