<svg width="17" height="17" viewBox="0 0 17 17" fill="none" xmlns="http://www.w3.org/2000/svg">
<mask id="mask0_378_15781" style="mask-type:luminance" maskUnits="userSpaceOnUse" x="1" y="1" width="15" height="15">
<path fill-rule="evenodd" clip-rule="evenodd" d="M15.3372 7.07395H8.66279V9.7785H12.5047C12.1465 11.4967 10.6488 12.483 8.66279 12.483C6.3186 12.483 4.43023 10.6376 4.43023 8.34668C4.43023 6.05577 6.3186 4.21032 8.66279 4.21032C9.67209 4.21032 10.5837 4.56032 11.3 5.13304L13.3837 3.09668C12.114 2.01486 10.486 1.34668 8.66279 1.34668C4.6907 1.34668 1.5 4.46486 1.5 8.34668C1.5 12.2285 4.6907 15.3467 8.66279 15.3467C12.2442 15.3467 15.5 12.8012 15.5 8.34668C15.5 7.93304 15.4349 7.48759 15.3372 7.07395Z" fill="white"/>
</mask>
<g mask="url(#mask0_378_15781)">
<path d="M0.848633 12.4827V4.20996L6.38352 8.34632L0.848633 12.4827Z" fill="#FBBC05"/>
</g>
<mask id="mask1_378_15781" style="mask-type:luminance" maskUnits="userSpaceOnUse" x="1" y="1" width="15" height="15">
<path fill-rule="evenodd" clip-rule="evenodd" d="M15.3372 7.07395H8.66279V9.7785H12.5047C12.1465 11.4967 10.6488 12.483 8.66279 12.483C6.3186 12.483 4.43023 10.6376 4.43023 8.34668C4.43023 6.05577 6.3186 4.21032 8.66279 4.21032C9.67209 4.21032 10.5837 4.56032 11.3 5.13304L13.3837 3.09668C12.114 2.01486 10.486 1.34668 8.66279 1.34668C4.6907 1.34668 1.5 4.46486 1.5 8.34668C1.5 12.2285 4.6907 15.3467 8.66279 15.3467C12.2442 15.3467 15.5 12.8012 15.5 8.34668C15.5 7.93304 15.4349 7.48759 15.3372 7.07395Z" fill="white"/>
</mask>
<g mask="url(#mask1_378_15781)">
<path d="M0.848633 4.20996L6.38352 8.34632L8.66259 6.40542L16.4765 5.16451V0.709961H0.848633V4.20996Z" fill="#EA4335"/>
</g>
<mask id="mask2_378_15781" style="mask-type:luminance" maskUnits="userSpaceOnUse" x="1" y="1" width="15" height="15">
<path fill-rule="evenodd" clip-rule="evenodd" d="M15.3372 7.07395H8.66279V9.7785H12.5047C12.1465 11.4967 10.6488 12.483 8.66279 12.483C6.3186 12.483 4.43023 10.6376 4.43023 8.34668C4.43023 6.05577 6.3186 4.21032 8.66279 4.21032C9.67209 4.21032 10.5837 4.56032 11.3 5.13304L13.3837 3.09668C12.114 2.01486 10.486 1.34668 8.66279 1.34668C4.6907 1.34668 1.5 4.46486 1.5 8.34668C1.5 12.2285 4.6907 15.3467 8.66279 15.3467C12.2442 15.3467 15.5 12.8012 15.5 8.34668C15.5 7.93304 15.4349 7.48759 15.3372 7.07395Z" fill="white"/>
</mask>
<g mask="url(#mask2_378_15781)">
<path d="M0.848633 12.4827L10.6161 5.16451L13.1882 5.48269L16.4765 0.709961V15.9827H0.848633V12.4827Z" fill="#34A853"/>
</g>
<mask id="mask3_378_15781" style="mask-type:luminance" maskUnits="userSpaceOnUse" x="1" y="1" width="15" height="15">
<path fill-rule="evenodd" clip-rule="evenodd" d="M15.3372 7.07395H8.66279V9.7785H12.5047C12.1465 11.4967 10.6488 12.483 8.66279 12.483C6.3186 12.483 4.43023 10.6376 4.43023 8.34668C4.43023 6.05577 6.3186 4.21032 8.66279 4.21032C9.67209 4.21032 10.5837 4.56032 11.3 5.13304L13.3837 3.09668C12.114 2.01486 10.486 1.34668 8.66279 1.34668C4.6907 1.34668 1.5 4.46486 1.5 8.34668C1.5 12.2285 4.6907 15.3467 8.66279 15.3467C12.2442 15.3467 15.5 12.8012 15.5 8.34668C15.5 7.93304 15.4349 7.48759 15.3372 7.07395Z" fill="white"/>
</mask>
<g mask="url(#mask3_378_15781)">
<path d="M16.4769 15.9827L6.38387 8.34632L5.08154 7.39178L16.4769 4.20996V15.9827Z" fill="#4285F4"/>
</g>
</svg>
