<svg width="17" height="17" viewBox="0 0 17 17" fill="none" xmlns="http://www.w3.org/2000/svg">
<path d="M14.8437 5.59667C14.8645 5.68001 14.875 5.81542 14.875 6.00292C14.875 7.50292 14.5104 8.95083 13.7812 10.3467C13.0312 11.8258 11.9791 13.0029 10.625 13.8779C9.14581 14.8571 7.4479 15.3466 5.53124 15.3466C3.69791 15.3466 2.02083 14.8571 0.5 13.8779C0.729166 13.8987 0.989582 13.9092 1.28125 13.9092C2.80208 13.9092 4.16666 13.4404 5.37499 12.5029C4.64582 12.5029 4.0052 12.2894 3.45312 11.8623C2.90104 11.4352 2.52083 10.8987 2.3125 10.2529C2.52083 10.2737 2.71874 10.2842 2.90624 10.2842C3.19791 10.2842 3.48958 10.2529 3.78124 10.1904C3.03124 10.0237 2.40625 9.63833 1.90625 9.03416C1.40625 8.43 1.15625 7.7425 1.15625 6.97167V6.90917C1.61458 7.18 2.10416 7.32583 2.62499 7.34667C2.1875 7.03417 1.83333 6.63834 1.5625 6.15917C1.29166 5.68001 1.15625 5.15396 1.15625 4.58105C1.15625 4.00813 1.3125 3.46126 1.625 2.94043C2.4375 3.96126 3.43228 4.77376 4.60936 5.37792C5.78645 5.98209 7.04165 6.31542 8.37498 6.37792C8.33331 6.12792 8.31248 5.87792 8.31248 5.62792C8.31248 5.04459 8.45831 4.49772 8.74998 3.9873C9.04165 3.47689 9.43748 3.07584 9.93748 2.78418C10.4375 2.49251 10.9791 2.34668 11.5625 2.34668C12.0416 2.34668 12.4843 2.44043 12.8906 2.62793C13.2968 2.81543 13.6562 3.06543 13.9687 3.37793C14.7187 3.23209 15.4166 2.97168 16.0625 2.59668C15.8125 3.36751 15.3333 3.97168 14.625 4.40917C15.25 4.32584 15.875 4.14876 16.5 3.87793C16.0416 4.54459 15.4895 5.11751 14.8437 5.59667Z" fill="#00A2F3"/>
</svg>
